<?xml version="1.0" encoding="UTF-8" standalone="no"?>
<svg width="293px" height="43px" viewBox="0 0 293 43" version="1.1" xmlns="http://www.w3.org/2000/svg">
  <title>Gradle-Cloud-Services</title>
  <g id="Gradle" stroke="none" stroke-width="1" fill="none" fill-rule="evenodd">
    <g id="Gradle-Cloud-Services">
      <g id="Logo" transform="translate(4.200000, 4.200000)">
        <g id="Imported-Layers" transform="translate(0.000000, -0.000000)">
          <g id="Group-7" transform="translate(0.040555, 0.000000)">
            <path
              d="M42.6358913,3.68772959 C41.079481,0.889289628 38.2977116,0.0529315812 36.3324493,0.0132817252 C33.9212301,-0.0353528273 31.9409064,1.29994885 32.3154463,2.17654271 C32.3958403,2.36473304 32.8478815,3.3470924 33.1253702,3.75257566 C33.5270406,4.3393154 34.2460974,3.88851802 34.4979518,3.75462652 C35.250024,3.35490518 36.0537637,3.22550602 36.9654268,3.33175982 C37.8368929,3.43332596 38.9946252,3.97045455 39.7713342,5.4627931 C41.5991489,8.97502813 35.9567125,16.2036071 28.8939169,11.1978616 C21.8310217,6.19211606 14.9627276,7.85076916 11.8530987,8.85969197 C8.74356951,9.86841947 7.31423341,10.8829089 8.54298369,13.2289889 C10.2128033,16.4171889 9.65932211,15.4389313 11.2784716,18.0780882 C13.8502792,22.2697421 19.4797488,16.1491129 19.4797488,16.1491129 C15.2860987,22.3308771 11.6912136,20.8372689 10.3123482,18.6762541 C9.06973344,16.7285282 8.10420843,14.4830377 8.10420843,14.4830377 C-2.51736467,18.2290701 0.356368916,34.7663805 0.356368916,34.7663805 L5.63114777,34.7663805 C6.97600043,28.6772955 11.7842751,28.9018153 12.6083627,34.7663805 L16.6332454,34.7663805 C20.192821,22.8763067 29.2146947,34.7663805 29.2146947,34.7663805 L34.4613456,34.7663805 C32.9919123,26.6555435 37.4126803,24.1073078 40.1986389,19.3530361 C42.9848967,14.5983738 45.6241314,8.78185715 42.6358913,3.68772959 L42.6358913,3.68772959 Z M29.1027816,19.3472742 C26.328892,18.4419684 27.3210488,15.6816157 27.3210488,15.6816157 C27.3210488,15.6816157 29.7435391,16.4649445 33.0204392,17.5341234 C32.8318227,18.3903064 31.201801,20.032455 29.1027816,19.3472742 L29.1027816,19.3472742 Z"
              id="Fill-9" fill="#02303A"></path>
            <path
              d="M31.5636734,17.2659498 C31.6465609,18.0300396 31.0619595,18.7172712 30.2578208,18.8008679 C29.4536821,18.8844647 28.734725,18.3327848 28.6518375,17.5685973 C28.56895,16.8045075 29.1536512,16.1172758 29.9576901,16.0336791 C30.7618288,15.9500824 31.4808856,16.5017623 31.5636734,17.2659498"
              id="Fill-10" fill="#00303A"></path>
          </g>
        </g>
      </g>
      <path
        d="M65.72,28.624 C66.4480036,28.624 67.0819973,28.5580007 67.622,28.426 C68.1620027,28.2939993 68.6759976,28.1120012 69.164,27.88 L69.164,24.724 L66.992,24.724 C66.783999,24.724 66.6200006,24.6660006 66.5,24.55 C66.3799994,24.4339994 66.32,24.2920008 66.32,24.124 L66.32,22.3 L72.092,22.3 L72.092,29.32 C71.6519978,29.6400016 71.1940024,29.9179988 70.718,30.154 C70.2419976,30.3900012 69.7340027,30.5839992 69.194,30.736 C68.6539973,30.8880008 68.0760031,31.0019996 67.46,31.078 C66.8439969,31.1540004 66.1800036,31.192 65.468,31.192 C64.2039937,31.192 63.0400053,30.9720022 61.976,30.532 C60.9119947,30.0919978 59.9920039,29.4800039 59.216,28.696 C58.4399961,27.9119961 57.8340022,26.9760054 57.398,25.888 C56.9619978,24.7999946 56.744,23.6120064 56.744,22.324 C56.744,21.0199935 56.9559979,19.8240054 57.38,18.736 C57.8040021,17.6479946 58.4059961,16.7120039 59.186,15.928 C59.9660039,15.1439961 60.9119944,14.5360022 62.024,14.104 C63.1360056,13.6719978 64.3839931,13.456 65.768,13.456 C67.1840071,13.456 68.4099948,13.6659979 69.446,14.086 C70.4820052,14.5060021 71.3599964,15.0519966 72.08,15.724 L71.144,17.188 C70.9599991,17.4840015 70.7160015,17.632 70.412,17.632 C70.219999,17.632 70.024001,17.5680006 69.824,17.44 C69.5679987,17.2879992 69.3060013,17.1360008 69.038,16.984 C68.7699987,16.8319992 68.4740016,16.7000006 68.15,16.588 C67.8259984,16.4759994 67.462002,16.3840004 67.058,16.312 C66.653998,16.2399996 66.1880026,16.204 65.66,16.204 C64.8039957,16.204 64.0300035,16.3479986 63.338,16.636 C62.6459965,16.9240014 62.0560024,17.3359973 61.568,17.872 C61.0799976,18.4080027 60.7040013,19.0519962 60.44,19.804 C60.1759987,20.5560038 60.044,21.3959954 60.044,22.324 C60.044,23.324005 60.1839986,24.2139961 60.464,24.994 C60.7440014,25.7740039 61.1359975,26.4319973 61.64,26.968 C62.1440025,27.5040027 62.7439965,27.9139986 63.44,28.198 C64.1360035,28.4820014 64.8959959,28.624 65.72,28.624 L65.72,28.624 Z M74.936,31 L74.936,18.688 L76.676,18.688 C76.9800015,18.688 77.1919994,18.7439994 77.312,18.856 C77.4320006,18.9680006 77.5119998,19.1599986 77.552,19.432 L77.732,20.92 C78.1720022,20.1599962 78.687997,19.5600022 79.28,19.12 C79.872003,18.6799978 80.5359963,18.46 81.272,18.46 C81.880003,18.46 82.383998,18.5999986 82.784,18.88 L82.4,21.1 C82.3759999,21.2440007 82.3240004,21.3459997 82.244,21.406 C82.1639996,21.4660003 82.0560007,21.496 81.92,21.496 C81.7999994,21.496 81.636001,21.4680003 81.428,21.412 C81.219999,21.3559997 80.9440017,21.328 80.6,21.328 C79.9839969,21.328 79.4560022,21.4979983 79.016,21.838 C78.5759978,22.1780017 78.2040015,22.6759967 77.9,23.332 L77.9,31 L74.936,31 Z M94.04,31 L92.708,31 C92.4279986,31 92.2080008,30.9580004 92.048,30.874 C91.8879992,30.7899996 91.7680004,30.6200013 91.688,30.364 L91.424,29.488 C91.1119984,29.7680014 90.8060015,30.0139989 90.506,30.226 C90.2059985,30.4380011 89.8960016,30.6159993 89.576,30.76 C89.2559984,30.9040007 88.9160018,31.0119996 88.556,31.084 C88.1959982,31.1560004 87.7960022,31.192 87.356,31.192 C86.8359974,31.192 86.3560022,31.1220007 85.916,30.982 C85.4759978,30.8419993 85.0980016,30.6320014 84.782,30.352 C84.4659984,30.0719986 84.2200009,29.7240021 84.044,29.308 C83.8679991,28.8919979 83.78,28.4080028 83.78,27.856 C83.78,27.3919977 83.9019988,26.9340023 84.146,26.482 C84.3900012,26.0299977 84.7959972,25.6220018 85.364,25.258 C85.9320028,24.8939982 86.6879953,24.5920012 87.632,24.352 C88.5760047,24.1119988 89.747993,23.9760002 91.148,23.944 L91.148,23.224 C91.148,22.3999959 90.9740017,21.790002 90.626,21.394 C90.2779983,20.997998 89.7720033,20.8 89.108,20.8 C88.6279976,20.8 88.2280016,20.8559994 87.908,20.968 C87.5879984,21.0800006 87.3100012,21.2059993 87.074,21.346 C86.8379988,21.4860007 86.620001,21.6119994 86.42,21.724 C86.219999,21.8360006 86.0000012,21.892 85.76,21.892 C85.559999,21.892 85.3880007,21.8400005 85.244,21.736 C85.0999993,21.6319995 84.9840004,21.5040008 84.896,21.352 L84.356,20.404 C85.7720071,19.1079935 87.47999,18.46 89.48,18.46 C90.2000036,18.46 90.8419972,18.5779988 91.406,18.814 C91.9700028,19.0500012 92.447998,19.3779979 92.84,19.798 C93.232002,20.2180021 93.529999,20.7199971 93.734,21.304 C93.938001,21.8880029 94.04,22.5279965 94.04,23.224 L94.04,31 Z M88.28,29.152 C88.5840015,29.152 88.8639987,29.1240003 89.12,29.068 C89.3760013,29.0119997 89.6179989,28.9280006 89.846,28.816 C90.0740011,28.7039994 90.2939989,28.5660008 90.506,28.402 C90.7180011,28.2379992 90.9319989,28.0440011 91.148,27.82 L91.148,25.744 C90.2839957,25.7840002 89.5620029,25.8579995 88.982,25.966 C88.4019971,26.0740005 87.9360018,26.2119992 87.584,26.38 C87.2319982,26.5480008 86.9820007,26.7439989 86.834,26.968 C86.6859993,27.1920011 86.612,27.4359987 86.612,27.7 C86.612,28.2200026 86.7659985,28.5919989 87.074,28.816 C87.3820015,29.0400011 87.7839975,29.152 88.28,29.152 L88.28,29.152 Z M105.62,31 C105.235998,31 104.984001,30.8200018 104.864,30.46 L104.624,29.272 C104.367999,29.5600014 104.100001,29.8199988 103.82,30.052 C103.539999,30.2840012 103.238002,30.4839992 102.914,30.652 C102.589998,30.8200008 102.242002,30.9499995 101.87,31.042 C101.497998,31.1340005 101.096002,31.18 100.664,31.18 C99.9919966,31.18 99.3760028,31.0400014 98.816,30.76 C98.2559972,30.4799986 97.774002,30.0740027 97.37,29.542 C96.965998,29.0099973 96.6540011,28.3520039 96.434,27.568 C96.2139989,26.7839961 96.104,25.888005 96.104,24.88 C96.104,23.9679954 96.2279988,23.1200039 96.476,22.336 C96.7240012,21.5519961 97.0799977,20.8720029 97.544,20.296 C98.0080023,19.7199971 98.5639968,19.2700016 99.212,18.946 C99.8600032,18.6219984 100.587996,18.46 101.396,18.46 C102.084003,18.46 102.671998,18.5699989 103.16,18.79 C103.648002,19.0100011 104.083998,19.3039982 104.468,19.672 L104.468,13.168 L107.432,13.168 L107.432,31 L105.62,31 Z M101.672,28.828 C102.288003,28.828 102.811998,28.7000013 103.244,28.444 C103.676002,28.1879987 104.083998,27.8240024 104.468,27.352 L104.468,21.832 C104.131998,21.423998 103.766002,21.1360008 103.37,20.968 C102.973998,20.7999992 102.548002,20.716 102.092,20.716 C101.643998,20.716 101.238002,20.7999992 100.874,20.968 C100.509998,21.1360008 100.202001,21.3899983 99.95,21.73 C99.6979987,22.0700017 99.5040007,22.5019974 99.368,23.026 C99.2319993,23.5500026 99.164,24.1679964 99.164,24.88 C99.164,25.6000036 99.2219994,26.2099975 99.338,26.71 C99.4540006,27.2100025 99.6199989,27.6179984 99.836,27.934 C100.052001,28.2500016 100.315998,28.4779993 100.628,28.618 C100.940002,28.7580007 101.287998,28.828 101.672,28.828 L101.672,28.828 Z M113.792,13.168 L113.792,31 L110.828,31 L110.828,13.168 L113.792,13.168 Z M122.228,18.496 C123.004004,18.496 123.717997,18.6199988 124.37,18.868 C125.022003,19.1160012 125.583998,19.4779976 126.056,19.954 C126.528002,20.4300024 126.895999,21.0139965 127.16,21.706 C127.424001,22.3980035 127.556,23.1879956 127.556,24.076 C127.556,24.3000011 127.546,24.4859993 127.526,24.634 C127.506,24.7820007 127.47,24.8979996 127.418,24.982 C127.366,25.0660004 127.296,25.1259998 127.208,25.162 C127.12,25.1980002 127.008001,25.216 126.872,25.216 L119.264,25.216 C119.352,26.4800063 119.691997,27.407997 120.284,28 C120.876003,28.592003 121.659995,28.888 122.636,28.888 C123.116002,28.888 123.529998,28.8320006 123.878,28.72 C124.226002,28.6079994 124.529999,28.4840007 124.79,28.348 C125.050001,28.2119993 125.277999,28.0880006 125.474,27.976 C125.670001,27.8639994 125.859999,27.808 126.044,27.808 C126.164001,27.808 126.268,27.8319998 126.356,27.88 C126.444,27.9280002 126.52,27.9959996 126.584,28.084 L127.448,29.164 C127.119998,29.5480019 126.752002,29.8699987 126.344,30.13 C125.935998,30.3900013 125.510002,30.5979992 125.066,30.754 C124.621998,30.9100008 124.170002,31.0199997 123.71,31.084 C123.249998,31.1480003 122.804002,31.18 122.372,31.18 C121.515996,31.18 120.720004,31.0380014 119.984,30.754 C119.247996,30.4699986 118.608003,30.0500028 118.064,29.494 C117.519997,28.9379972 117.092002,28.2500041 116.78,27.43 C116.467998,26.6099959 116.312,25.6600054 116.312,24.58 C116.312,23.7399958 116.447999,22.9500037 116.72,22.21 C116.992001,21.4699963 117.381997,20.8260027 117.89,20.278 C118.398003,19.7299973 119.017996,19.2960016 119.75,18.976 C120.482004,18.6559984 121.307995,18.496 122.228,18.496 L122.228,18.496 Z M122.288,20.62 C121.423996,20.62 120.748002,20.8639976 120.26,21.352 C119.771998,21.8400024 119.460001,22.5319955 119.324,23.428 L124.892,23.428 C124.892,23.0439981 124.840001,22.6820017 124.736,22.342 C124.631999,22.0019983 124.472001,21.7040013 124.256,21.448 C124.039999,21.1919987 123.768002,20.9900007 123.44,20.842 C123.111998,20.6939993 122.728002,20.62 122.288,20.62 L122.288,20.62 Z M147.872,28.144 C147.952,28.144 148.02,28.1719997 148.076,28.228 L148.556,28.744 C148.203998,29.1200019 147.820002,29.4579985 147.404,29.758 C146.987998,30.0580015 146.534002,30.3139989 146.042,30.526 C145.549998,30.7380011 145.010003,30.9019994 144.422,31.018 C143.833997,31.1340006 143.188004,31.192 142.484,31.192 C141.307994,31.192 140.230005,30.9860021 139.25,30.574 C138.269995,30.1619979 137.430003,29.5780038 136.73,28.822 C136.029997,28.0659962 135.484002,27.1520054 135.092,26.08 C134.699998,25.0079946 134.504,23.8160066 134.504,22.504 C134.504,21.2159936 134.705998,20.0400053 135.11,18.976 C135.514002,17.9119947 136.081996,16.9980038 136.814,16.234 C137.546004,15.4699962 138.421995,14.8780021 139.442,14.458 C140.462005,14.0379979 141.587994,13.828 142.82,13.828 C143.436003,13.828 143.999997,13.8739995 144.512,13.966 C145.024003,14.0580005 145.501998,14.1899991 145.946,14.362 C146.390002,14.5340009 146.807998,14.7479987 147.2,15.004 C147.592002,15.2600013 147.975998,15.5559983 148.352,15.892 L147.98,16.432 C147.916,16.5280005 147.816001,16.576 147.68,16.576 C147.608,16.576 147.516001,16.5340004 147.404,16.45 C147.291999,16.3659996 147.150001,16.2620006 146.978,16.138 C146.805999,16.0139994 146.598001,15.8780007 146.354,15.73 C146.109999,15.5819993 145.820002,15.4460006 145.484,15.322 C145.147998,15.1979994 144.760002,15.0940004 144.32,15.01 C143.879998,14.9259996 143.380003,14.884 142.82,14.884 C141.787995,14.884 140.840004,15.0619982 139.976,15.418 C139.111996,15.7740018 138.368003,16.2819967 137.744,16.942 C137.119997,17.6020033 136.634002,18.4019953 136.286,19.342 C135.937998,20.2820047 135.764,21.3359942 135.764,22.504 C135.764,23.704006 135.935998,24.7759953 136.28,25.72 C136.624002,26.6640047 137.099997,27.4619967 137.708,28.114 C138.316003,28.7660033 139.033996,29.2659983 139.862,29.614 C140.690004,29.9620017 141.587995,30.136 142.556,30.136 C143.164003,30.136 143.705998,30.0960004 144.182,30.016 C144.658002,29.9359996 145.095998,29.8160008 145.496,29.656 C145.896002,29.4959992 146.267998,29.3000012 146.612,29.068 C146.956002,28.8359988 147.295998,28.5640016 147.632,28.252 C147.672,28.2199998 147.71,28.1940001 147.746,28.174 C147.782,28.1539999 147.824,28.144 147.872,28.144 L147.872,28.144 Z M153.32,13.54 L153.32,31 L152.18,31 L152.18,13.54 L153.32,13.54 Z M162.092,18.868 C162.948004,18.868 163.713997,19.0139985 164.39,19.306 C165.066003,19.5980015 165.635998,20.0119973 166.1,20.548 C166.564002,21.0840027 166.917999,21.7299962 167.162,22.486 C167.406001,23.2420038 167.528,24.0879953 167.528,25.024 C167.528,25.9600047 167.406001,26.8039962 167.162,27.556 C166.917999,28.3080038 166.564002,28.9519973 166.1,29.488 C165.635998,30.0240027 165.066003,30.4359986 164.39,30.724 C163.713997,31.0120014 162.948004,31.156 162.092,31.156 C161.235996,31.156 160.470003,31.0120014 159.794,30.724 C159.117997,30.4359986 158.546002,30.0240027 158.078,29.488 C157.609998,28.9519973 157.254001,28.3080038 157.01,27.556 C156.765999,26.8039962 156.644,25.9600047 156.644,25.024 C156.644,24.0879953 156.765999,23.2420038 157.01,22.486 C157.254001,21.7299962 157.609998,21.0840027 158.078,20.548 C158.546002,20.0119973 159.117997,19.5980015 159.794,19.306 C160.470003,19.0139985 161.235996,18.868 162.092,18.868 L162.092,18.868 Z M162.092,30.256 C162.804004,30.256 163.425997,30.1340012 163.958,29.89 C164.490003,29.6459988 164.933998,29.2960023 165.29,28.84 C165.646002,28.3839977 165.911999,27.8340032 166.088,27.19 C166.264001,26.5459968 166.352,25.824004 166.352,25.024 C166.352,24.231996 166.264001,23.5120032 166.088,22.864 C165.911999,22.2159968 165.646002,21.6620023 165.29,21.202 C164.933998,20.7419977 164.490003,20.3880012 163.958,20.14 C163.425997,19.8919988 162.804004,19.768 162.092,19.768 C161.379996,19.768 160.758003,19.8919988 160.226,20.14 C159.693997,20.3880012 159.250002,20.7419977 158.894,21.202 C158.537998,21.6620023 158.270001,22.2159968 158.09,22.864 C157.909999,23.5120032 157.82,24.231996 157.82,25.024 C157.82,25.824004 157.909999,26.5459968 158.09,27.19 C158.270001,27.8340032 158.537998,28.3839977 158.894,28.84 C159.250002,29.2960023 159.693997,29.6459988 160.226,29.89 C160.758003,30.1340012 161.379996,30.256 162.092,30.256 L162.092,30.256 Z M171.38,19.06 L171.38,26.692 C171.38,27.8120056 171.635997,28.6899968 172.148,29.326 C172.660003,29.9620032 173.439995,30.28 174.488,30.28 C175.264004,30.28 175.987997,30.082002 176.66,29.686 C177.332003,29.289998 177.935997,28.7400035 178.472,28.036 L178.472,19.06 L179.624,19.06 L179.624,31 L178.988,31 C178.763999,31 178.648,30.896001 178.64,30.688 L178.532,28.912 C177.979997,29.6000034 177.342004,30.1519979 176.618,30.568 C175.893996,30.9840021 175.088004,31.192 174.2,31.192 C173.535997,31.192 172.956002,31.088001 172.46,30.88 C171.963998,30.671999 171.552002,30.372002 171.224,29.98 C170.895998,29.587998 170.648001,29.1160028 170.48,28.564 C170.311999,28.0119972 170.228,27.3880035 170.228,26.692 L170.228,19.06 L171.38,19.06 Z M191.972,31 C191.771999,31 191.656,30.896001 191.624,30.688 L191.504,28.804 C190.975997,29.5240036 190.358004,30.0959979 189.65,30.52 C188.941996,30.9440021 188.148004,31.156 187.268,31.156 C185.803993,31.156 184.662004,30.6480051 183.842,29.632 C183.021996,28.6159949 182.612,27.0920102 182.612,25.06 C182.612,24.1879956 182.725999,23.3740038 182.954,22.618 C183.182001,21.8619962 183.517998,21.2060028 183.962,20.65 C184.406002,20.0939972 184.949997,19.6560016 185.594,19.336 C186.238003,19.0159984 186.979996,18.856 187.82,18.856 C188.628004,18.856 189.327997,19.0059985 189.92,19.306 C190.512003,19.6060015 191.023998,20.0439971 191.456,20.62 L191.456,13.54 L192.608,13.54 L192.608,31 L191.972,31 Z M187.592,30.232 C188.384004,30.232 189.099997,30.028002 189.74,29.62 C190.380003,29.211998 190.951997,28.6440036 191.456,27.916 L191.456,21.616 C190.991998,20.9359966 190.482003,20.4560014 189.926,20.176 C189.369997,19.8959986 188.740004,19.756 188.036,19.756 C187.331996,19.756 186.716003,19.8839987 186.188,20.14 C185.659997,20.3960013 185.218002,20.7579977 184.862,21.226 C184.505998,21.6940023 184.238001,22.2539967 184.058,22.906 C183.877999,23.5580033 183.788,24.2759961 183.788,25.06 C183.788,26.8360089 184.115997,28.1419958 184.772,28.978 C185.428003,29.8140042 186.367994,30.232 187.592,30.232 L187.592,30.232 Z M210.032,16.084 C209.96,16.2200007 209.856001,16.288 209.72,16.288 C209.615999,16.288 209.482001,16.2140007 209.318,16.066 C209.153999,15.9179993 208.932001,15.7540009 208.652,15.574 C208.371999,15.3939991 208.022002,15.2280008 207.602,15.076 C207.181998,14.9239992 206.664003,14.848 206.048,14.848 C205.431997,14.848 204.890002,14.9359991 204.422,15.112 C203.953998,15.2880009 203.562002,15.5279985 203.246,15.832 C202.929998,16.1360015 202.690001,16.487998 202.526,16.888 C202.361999,17.288002 202.28,17.7079978 202.28,18.148 C202.28,18.7240029 202.401999,19.1999981 202.646,19.576 C202.890001,19.9520019 203.211998,20.2719987 203.612,20.536 C204.012002,20.8000013 204.465997,21.0219991 204.974,21.202 C205.482003,21.3820009 206.003997,21.5599991 206.54,21.736 C207.076003,21.9120009 207.597997,22.1059989 208.106,22.318 C208.614003,22.5300011 209.067998,22.7959984 209.468,23.116 C209.868002,23.4360016 210.189999,23.8299977 210.434,24.298 C210.678001,24.7660023 210.8,25.3479965 210.8,26.044 C210.8,26.7560036 210.678001,27.4259969 210.434,28.054 C210.189999,28.6820031 209.836002,29.2279977 209.372,29.692 C208.907998,30.1560023 208.340003,30.5219987 207.668,30.79 C206.995997,31.0580013 206.228004,31.192 205.364,31.192 C204.243994,31.192 203.280004,30.994002 202.472,30.598 C201.663996,30.201998 200.956003,29.6600034 200.348,28.972 L200.684,28.444 C200.78,28.3239994 200.891999,28.264 201.02,28.264 C201.092,28.264 201.183999,28.3119995 201.296,28.408 C201.408001,28.5040005 201.543999,28.6219993 201.704,28.762 C201.864001,28.9020007 202.055999,29.0539992 202.28,29.218 C202.504001,29.3820008 202.763999,29.5339993 203.06,29.674 C203.356001,29.8140007 203.695998,29.9319995 204.08,30.028 C204.464002,30.1240005 204.899998,30.172 205.388,30.172 C206.060003,30.172 206.659997,30.070001 207.188,29.866 C207.716003,29.661999 208.161998,29.3840018 208.526,29.032 C208.890002,28.6799982 209.167999,28.2620024 209.36,27.778 C209.552001,27.2939976 209.648,26.7760028 209.648,26.224 C209.648,25.623997 209.526001,25.1300019 209.282,24.742 C209.037999,24.3539981 208.716002,24.0300013 208.316,23.77 C207.915998,23.5099987 207.462003,23.2920009 206.954,23.116 C206.445997,22.9399991 205.924003,22.7680008 205.388,22.6 C204.851997,22.4319992 204.330003,22.244001 203.822,22.036 C203.313997,21.827999 202.860002,21.5620016 202.46,21.238 C202.059998,20.9139984 201.738001,20.5100024 201.494,20.026 C201.249999,19.5419976 201.128,18.9360036 201.128,18.208 C201.128,17.6399972 201.235999,17.0920026 201.452,16.564 C201.668001,16.0359974 201.983998,15.570002 202.4,15.166 C202.816002,14.761998 203.329997,14.4380012 203.942,14.194 C204.554003,13.9499988 205.251996,13.828 206.036,13.828 C206.916004,13.828 207.705996,13.9679986 208.406,14.248 C209.106004,14.5280014 209.743997,14.9559971 210.32,15.532 L210.032,16.084 Z M218.288,18.868 C218.960003,18.868 219.581997,18.9839988 220.154,19.216 C220.726003,19.4480012 221.221998,19.7859978 221.642,20.23 C222.062002,20.6740022 222.389999,21.2199968 222.626,21.868 C222.862001,22.5160032 222.98,23.2599958 222.98,24.1 C222.98,24.2760009 222.954,24.3959997 222.902,24.46 C222.85,24.5240003 222.768001,24.556 222.656,24.556 L214.028,24.556 L214.028,24.784 C214.028,25.6800045 214.131999,26.4679966 214.34,27.148 C214.548001,27.8280034 214.843998,28.3979977 215.228,28.858 C215.612002,29.3180023 216.075997,29.6639988 216.62,29.896 C217.164003,30.1280012 217.771997,30.244 218.444,30.244 C219.044003,30.244 219.563998,30.1780007 220.004,30.046 C220.444002,29.9139993 220.813998,29.7660008 221.114,29.602 C221.414001,29.4379992 221.651999,29.2900007 221.828,29.158 C222.004001,29.0259993 222.132,28.96 222.212,28.96 C222.316001,28.96 222.396,28.9999996 222.452,29.08 L222.764,29.464 C222.571999,29.7040012 222.318002,29.927999 222.002,30.136 C221.685998,30.344001 221.334002,30.5219993 220.946,30.67 C220.557998,30.8180007 220.142002,30.9359996 219.698,31.024 C219.253998,31.1120004 218.808002,31.156 218.36,31.156 C217.543996,31.156 216.800003,31.0140014 216.128,30.73 C215.455997,30.4459986 214.880002,30.0320027 214.4,29.488 C213.919998,28.9439973 213.550001,28.2780039 213.29,27.49 C213.029999,26.7019961 212.9,25.8000051 212.9,24.784 C212.9,23.9279957 213.021999,23.1380036 213.266,22.414 C213.510001,21.6899964 213.861998,21.0660026 214.322,20.542 C214.782002,20.0179974 215.345997,19.6080015 216.014,19.312 C216.682003,19.0159985 217.439996,18.868 218.288,18.868 L218.288,18.868 Z M218.3,19.72 C217.683997,19.72 217.132002,19.815999 216.644,20.008 C216.155998,20.200001 215.734002,20.4759982 215.378,20.836 C215.021998,21.1960018 214.734001,21.6279975 214.514,22.132 C214.293999,22.6360025 214.148,23.1999969 214.076,23.824 L221.948,23.824 C221.948,23.1839968 221.860001,22.6100025 221.684,22.102 C221.507999,21.5939975 221.260002,21.1640018 220.94,20.812 C220.619998,20.4599982 220.236002,20.1900009 219.788,20.002 C219.339998,19.8139991 218.844003,19.72 218.3,19.72 L218.3,19.72 Z M226.052,31 L226.052,19.06 L226.652,19.06 C226.788001,19.06 226.886,19.0879997 226.946,19.144 C227.006,19.2000003 227.04,19.2959993 227.048,19.432 L227.144,21.952 C227.528002,20.9839952 228.039997,20.2260027 228.68,19.678 C229.320003,19.1299973 230.107995,18.856 231.044,18.856 C231.404002,18.856 231.735998,18.8939996 232.04,18.97 C232.344002,19.0460004 232.631999,19.1559993 232.904,19.3 L232.748,20.092 C232.724,20.2200006 232.644001,20.284 232.508,20.284 C232.46,20.284 232.392,20.2680002 232.304,20.236 C232.216,20.2039998 232.106001,20.1680002 231.974,20.128 C231.841999,20.0879998 231.680001,20.0520002 231.488,20.02 C231.295999,19.9879998 231.076001,19.972 230.828,19.972 C229.923995,19.972 229.182003,20.2519972 228.602,20.812 C228.021997,21.3720028 227.552002,22.1799947 227.192,23.236 L227.192,31 L226.052,31 Z M239.984,31 L238.976,31 L233.936,19.06 L234.836,19.06 C234.948001,19.06 235.038,19.0899997 235.106,19.15 C235.174,19.2100003 235.224,19.2759996 235.256,19.348 L239.192,28.768 C239.272,28.9520009 239.332,29.1279992 239.372,29.296 C239.412,29.4640008 239.452,29.6319992 239.492,29.8 C239.532,29.6319992 239.574,29.4620009 239.618,29.29 C239.662,29.1179991 239.72,28.9440009 239.792,28.768 L243.752,19.348 C243.792,19.2599996 243.846,19.1900003 243.914,19.138 C243.982,19.0859997 244.064,19.06 244.16,19.06 L245.024,19.06 L239.984,31 Z M248.744,19.06 L248.744,31 L247.604,31 L247.604,19.06 L248.744,19.06 Z M249.248,14.944 C249.248,15.0880007 249.218,15.2219994 249.158,15.346 C249.098,15.4700006 249.02,15.5799995 248.924,15.676 C248.828,15.7720005 248.716001,15.8479997 248.588,15.904 C248.459999,15.9600003 248.324001,15.988 248.18,15.988 C248.035999,15.988 247.900001,15.9600003 247.772,15.904 C247.643999,15.8479997 247.532,15.7720005 247.436,15.676 C247.34,15.5799995 247.264,15.4700006 247.208,15.346 C247.152,15.2219994 247.124,15.0880007 247.124,14.944 C247.124,14.7999993 247.152,14.6620007 247.208,14.53 C247.264,14.3979993 247.34,14.2840005 247.436,14.188 C247.532,14.0919995 247.643999,14.0160003 247.772,13.96 C247.900001,13.9039997 248.035999,13.876 248.18,13.876 C248.324001,13.876 248.459999,13.9039997 248.588,13.96 C248.716001,14.0160003 248.828,14.0919995 248.924,14.188 C249.02,14.2840005 249.098,14.3979993 249.158,14.53 C249.218,14.6620007 249.248,14.7999993 249.248,14.944 L249.248,14.944 Z M260.828,20.656 C260.788,20.6960002 260.75,20.7299999 260.714,20.758 C260.678,20.7860001 260.628,20.8 260.564,20.8 C260.484,20.8 260.374001,20.7460005 260.234,20.638 C260.093999,20.5299995 259.908001,20.4120006 259.676,20.284 C259.443999,20.1559994 259.154002,20.0380005 258.806,19.93 C258.457998,19.8219995 258.036002,19.768 257.54,19.768 C256.851997,19.768 256.242003,19.8899988 255.71,20.134 C255.177997,20.3780012 254.730002,20.7279977 254.366,21.184 C254.001998,21.6400023 253.724001,22.1919968 253.532,22.84 C253.339999,23.4880032 253.244,24.215996 253.244,25.024 C253.244,25.8640042 253.341999,26.6079968 253.538,27.256 C253.734001,27.9040032 254.011998,28.4499978 254.372,28.894 C254.732002,29.3380022 255.167997,29.6759988 255.68,29.908 C256.192003,30.1400012 256.759997,30.256 257.384,30.256 C257.960003,30.256 258.441998,30.1880007 258.83,30.052 C259.218002,29.9159993 259.537999,29.7680008 259.79,29.608 C260.042001,29.4479992 260.241999,29.3000007 260.39,29.164 C260.538001,29.0279993 260.656,28.96 260.744,28.96 C260.848001,28.96 260.928,28.9999996 260.984,29.08 L261.296,29.464 C261.111999,29.7040012 260.880001,29.927999 260.6,30.136 C260.319999,30.344001 260.004002,30.5239992 259.652,30.676 C259.299998,30.8280008 258.918002,30.9459996 258.506,31.03 C258.093998,31.1140004 257.664002,31.156 257.216,31.156 C256.455996,31.156 255.762003,31.0180014 255.134,30.742 C254.505997,30.4659986 253.966002,30.0660026 253.514,29.542 C253.061998,29.0179974 252.710001,28.3760038 252.458,27.616 C252.205999,26.8559962 252.08,25.9920048 252.08,25.024 C252.08,24.1119954 252.199999,23.2800038 252.44,22.528 C252.680001,21.7759962 253.029998,21.1280027 253.49,20.584 C253.950002,20.0399973 254.513997,19.6180015 255.182,19.318 C255.850003,19.0179985 256.615996,18.868 257.48,18.868 C258.256004,18.868 258.945997,18.9919988 259.55,19.24 C260.154003,19.4880012 260.679998,19.8239979 261.128,20.248 L260.828,20.656 Z M268.388,18.868 C269.060003,18.868 269.681997,18.9839988 270.254,19.216 C270.826003,19.4480012 271.321998,19.7859978 271.742,20.23 C272.162002,20.6740022 272.489999,21.2199968 272.726,21.868 C272.962001,22.5160032 273.08,23.2599958 273.08,24.1 C273.08,24.2760009 273.054,24.3959997 273.002,24.46 C272.95,24.5240003 272.868001,24.556 272.756,24.556 L264.128,24.556 L264.128,24.784 C264.128,25.6800045 264.231999,26.4679966 264.44,27.148 C264.648001,27.8280034 264.943998,28.3979977 265.328,28.858 C265.712002,29.3180023 266.175997,29.6639988 266.72,29.896 C267.264003,30.1280012 267.871997,30.244 268.544,30.244 C269.144003,30.244 269.663998,30.1780007 270.104,30.046 C270.544002,29.9139993 270.913998,29.7660008 271.214,29.602 C271.514001,29.4379992 271.751999,29.2900007 271.928,29.158 C272.104001,29.0259993 272.232,28.96 272.312,28.96 C272.416001,28.96 272.496,28.9999996 272.552,29.08 L272.864,29.464 C272.671999,29.7040012 272.418002,29.927999 272.102,30.136 C271.785998,30.344001 271.434002,30.5219993 271.046,30.67 C270.657998,30.8180007 270.242002,30.9359996 269.798,31.024 C269.353998,31.1120004 268.908002,31.156 268.46,31.156 C267.643996,31.156 266.900003,31.0140014 266.228,30.73 C265.555997,30.4459986 264.980002,30.0320027 264.5,29.488 C264.019998,28.9439973 263.650001,28.2780039 263.39,27.49 C263.129999,26.7019961 263,25.8000051 263,24.784 C263,23.9279957 263.121999,23.1380036 263.366,22.414 C263.610001,21.6899964 263.961998,21.0660026 264.422,20.542 C264.882002,20.0179974 265.445997,19.6080015 266.114,19.312 C266.782003,19.0159985 267.539996,18.868 268.388,18.868 L268.388,18.868 Z M268.4,19.72 C267.783997,19.72 267.232002,19.815999 266.744,20.008 C266.255998,20.200001 265.834002,20.4759982 265.478,20.836 C265.121998,21.1960018 264.834001,21.6279975 264.614,22.132 C264.393999,22.6360025 264.248,23.1999969 264.176,23.824 L272.048,23.824 C272.048,23.1839968 271.960001,22.6100025 271.784,22.102 C271.607999,21.5939975 271.360002,21.1640018 271.04,20.812 C270.719998,20.4599982 270.336002,20.1900009 269.888,20.002 C269.439998,19.8139991 268.944003,19.72 268.4,19.72 L268.4,19.72 Z M282.728,20.536 C282.672,20.6480006 282.584001,20.704 282.464,20.704 C282.376,20.704 282.262001,20.6540005 282.122,20.554 C281.981999,20.4539995 281.798001,20.3420006 281.57,20.218 C281.341999,20.0939994 281.062002,19.9820005 280.73,19.882 C280.397998,19.7819995 279.992002,19.732 279.512,19.732 C279.079998,19.732 278.686002,19.7939994 278.33,19.918 C277.973998,20.0420006 277.670001,20.207999 277.418,20.416 C277.165999,20.624001 276.970001,20.8659986 276.83,21.142 C276.689999,21.4180014 276.62,21.7079985 276.62,22.012 C276.62,22.3880019 276.715999,22.6999988 276.908,22.948 C277.100001,23.1960012 277.351998,23.4079991 277.664,23.584 C277.976002,23.7600009 278.329998,23.9119994 278.726,24.04 C279.122002,24.1680006 279.527998,24.2959994 279.944,24.424 C280.360002,24.5520006 280.765998,24.6939992 281.162,24.85 C281.558002,25.0060008 281.911998,25.1999988 282.224,25.432 C282.536002,25.6640012 282.787999,25.9479983 282.98,26.284 C283.172001,26.6200017 283.268,27.0279976 283.268,27.508 C283.268,28.0280026 283.174001,28.5119978 282.986,28.96 C282.797999,29.4080022 282.526002,29.7959984 282.17,30.124 C281.813998,30.4520016 281.376003,30.711999 280.856,30.904 C280.335997,31.096001 279.744003,31.192 279.08,31.192 C278.239996,31.192 277.516003,31.0580013 276.908,30.79 C276.299997,30.5219987 275.756002,30.1720022 275.276,29.74 L275.552,29.332 C275.592,29.2679997 275.636,29.2200002 275.684,29.188 C275.732,29.1559998 275.8,29.14 275.888,29.14 C275.992001,29.14 276.119999,29.2039994 276.272,29.332 C276.424001,29.4600006 276.621999,29.5979993 276.866,29.746 C277.110001,29.8940007 277.413998,30.0319994 277.778,30.16 C278.142002,30.2880006 278.591997,30.352 279.128,30.352 C279.632003,30.352 280.075998,30.2820007 280.46,30.142 C280.844002,30.0019993 281.163999,29.8120012 281.42,29.572 C281.676001,29.3319988 281.869999,29.0500016 282.002,28.726 C282.134001,28.4019984 282.2,28.0600018 282.2,27.7 C282.2,27.299998 282.104001,26.9680013 281.912,26.704 C281.719999,26.4399987 281.468002,26.2160009 281.156,26.032 C280.843998,25.8479991 280.490002,25.6920006 280.094,25.564 C279.697998,25.4359994 279.290002,25.3080006 278.87,25.18 C278.449998,25.0519994 278.042002,24.9120008 277.646,24.76 C277.249998,24.6079992 276.896002,24.4160012 276.584,24.184 C276.271998,23.9519988 276.020001,23.6700017 275.828,23.338 C275.635999,23.0059983 275.54,22.5920025 275.54,22.096 C275.54,21.6719979 275.631999,21.264002 275.816,20.872 C276.000001,20.479998 276.261998,20.1360015 276.602,19.84 C276.942002,19.5439985 277.355998,19.3080009 277.844,19.132 C278.332002,18.9559991 278.879997,18.868 279.488,18.868 C280.216004,18.868 280.861997,18.971999 281.426,19.18 C281.990003,19.388001 282.507998,19.7079978 282.98,20.14 L282.728,20.536 Z"
        id="Gradle-Cloud-Service" fill="#02303A"></path>
    </g>
  </g>
</svg>